<svg xmlns="http://www.w3.org/2000/svg" version="1.1" xmlns:xlink="http://www.w3.org/1999/xlink" xmlns:svgjs="http://svgjs.com/svgjs" width="1440" height="560" preserveAspectRatio="none" viewBox="0 0 1440 560"><g mask="url(&quot;#SvgjsMask1018&quot;)" fill="none"><rect width="1440" height="560" x="0" y="0" fill="#0e2a47"></rect><g mask="url(&quot;#SvgjsMask1019&quot;)"><path d="M724.5 577.5L724.5 556.5L724.5 535.5" stroke="#dd1133" stroke-width="3.5"></path><path d="M719.25 535.5 a5.25 5.25 0 1 0 10.5 0 a5.25 5.25 0 1 0 -10.5 0z" fill="#dd1133"></path><path d="M703.5 577.5L703.5 556.5" stroke="#3a7cc3" stroke-width="3.5"></path><path d="M698.25 556.5 a5.25 5.25 0 1 0 10.5 0 a5.25 5.25 0 1 0 -10.5 0z" fill="#3a7cc3"></path><path d="M766.5 409.5L745.5 388.5L745.5 367.5L745.5 346.5M745.5 514.5L724.5 493.5L724.5 472.5L724.5 451.5L724.5 430.5M766.5 472.5L745.5 451.5L745.5 430.5M745.5 577.5L745.5 556.5L745.5 535.5L745.5 514.5L745.5 493.5L766.5 472.5L766.5 451.5L766.5 430.5L766.5 409.5L766.5 388.5" stroke="#3a7cc3" stroke-width="3.5"></path><path d="M761.25 388.5 a5.25 5.25 0 1 0 10.5 0 a5.25 5.25 0 1 0 -10.5 0zM740.25 346.5 a5.25 5.25 0 1 0 10.5 0 a5.25 5.25 0 1 0 -10.5 0zM719.25 430.5 a5.25 5.25 0 1 0 10.5 0 a5.25 5.25 0 1 0 -10.5 0zM740.25 430.5 a5.25 5.25 0 1 0 10.5 0 a5.25 5.25 0 1 0 -10.5 0z" fill="#3a7cc3"></path><path d="M682.5 535.5L703.5 514.5L703.5 493.5L703.5 472.5M682.5 577.5L682.5 556.5L682.5 535.5L682.5 514.5" stroke="#dd1133" stroke-width="3.5"></path><path d="M677.25 514.5 a5.25 5.25 0 1 0 10.5 0 a5.25 5.25 0 1 0 -10.5 0zM698.25 472.5 a5.25 5.25 0 1 0 10.5 0 a5.25 5.25 0 1 0 -10.5 0z" fill="#dd1133"></path><path d="M766.5 577.5L766.5 556.5L766.5 535.5L766.5 514.5" stroke="#3a7cc3" stroke-width="3.5"></path><path d="M761.25 514.5 a5.25 5.25 0 1 0 10.5 0 a5.25 5.25 0 1 0 -10.5 0z" fill="#3a7cc3"></path><path d="M682.5 430.5L682.5 409.5L682.5 388.5L682.5 367.5L682.5 346.5M682.5 472.5L661.5 451.5L661.5 430.5M661.5 493.5L640.5 472.5L640.5 451.5L640.5 430.5L640.5 409.5M661.5 577.5L661.5 556.5L661.5 535.5L661.5 514.5L661.5 493.5L682.5 472.5L682.5 451.5L682.5 430.5L661.5 409.5L661.5 388.5" stroke="#3a7cc3" stroke-width="3.5"></path><path d="M656.25 388.5 a5.25 5.25 0 1 0 10.5 0 a5.25 5.25 0 1 0 -10.5 0zM677.25 346.5 a5.25 5.25 0 1 0 10.5 0 a5.25 5.25 0 1 0 -10.5 0zM656.25 430.5 a5.25 5.25 0 1 0 10.5 0 a5.25 5.25 0 1 0 -10.5 0zM635.25 409.5 a5.25 5.25 0 1 0 10.5 0 a5.25 5.25 0 1 0 -10.5 0z" fill="#3a7cc3"></path><path d="M787.5 430.5L808.5 409.5M787.5 451.5L808.5 430.5M787.5 409.5L787.5 388.5L787.5 367.5L787.5 346.5M787.5 577.5L787.5 556.5L787.5 535.5L787.5 514.5L787.5 493.5L787.5 472.5L787.5 451.5L787.5 430.5L787.5 409.5L808.5 388.5L808.5 367.5" stroke="#dd1133" stroke-width="3.5"></path><path d="M803.25 367.5 a5.25 5.25 0 1 0 10.5 0 a5.25 5.25 0 1 0 -10.5 0zM803.25 409.5 a5.25 5.25 0 1 0 10.5 0 a5.25 5.25 0 1 0 -10.5 0zM803.25 430.5 a5.25 5.25 0 1 0 10.5 0 a5.25 5.25 0 1 0 -10.5 0zM782.25 346.5 a5.25 5.25 0 1 0 10.5 0 a5.25 5.25 0 1 0 -10.5 0z" fill="#dd1133"></path><path d="M640.5 577.5L640.5 556.5L640.5 535.5" stroke="#3a7cc3" stroke-width="3.5"></path><path d="M635.25 535.5 a5.25 5.25 0 1 0 10.5 0 a5.25 5.25 0 1 0 -10.5 0z" fill="#3a7cc3"></path><path d="M829.5 409.5L850.5 388.5L850.5 367.5M808.5 472.5L808.5 451.5M829.5 430.5L850.5 409.5M808.5 577.5L808.5 556.5L808.5 535.5L808.5 514.5L808.5 493.5L808.5 472.5L829.5 451.5L829.5 430.5L829.5 409.5L829.5 388.5L829.5 367.5L829.5 346.5L829.5 325.5" stroke="#3a7cc3" stroke-width="3.5"></path><path d="M824.25 325.5 a5.25 5.25 0 1 0 10.5 0 a5.25 5.25 0 1 0 -10.5 0zM845.25 367.5 a5.25 5.25 0 1 0 10.5 0 a5.25 5.25 0 1 0 -10.5 0zM803.25 451.5 a5.25 5.25 0 1 0 10.5 0 a5.25 5.25 0 1 0 -10.5 0zM845.25 409.5 a5.25 5.25 0 1 0 10.5 0 a5.25 5.25 0 1 0 -10.5 0z" fill="#3a7cc3"></path><path d="M619.5 577.5L619.5 556.5L619.5 535.5L619.5 514.5L619.5 493.5L619.5 472.5L619.5 451.5L619.5 430.5L619.5 409.5" stroke="#dd1133" stroke-width="3.5"></path><path d="M614.25 409.5 a5.25 5.25 0 1 0 10.5 0 a5.25 5.25 0 1 0 -10.5 0z" fill="#dd1133"></path><path d="M829.5 493.5L850.5 472.5M829.5 577.5L829.5 556.5L829.5 535.5L829.5 514.5L829.5 493.5L829.5 472.5L850.5 451.5" stroke="#dd1133" stroke-width="3.5"></path><path d="M845.25 451.5 a5.25 5.25 0 1 0 10.5 0 a5.25 5.25 0 1 0 -10.5 0zM845.25 472.5 a5.25 5.25 0 1 0 10.5 0 a5.25 5.25 0 1 0 -10.5 0z" fill="#dd1133"></path><path d="M598.5 472.5L577.5 451.5M598.5 514.5L577.5 493.5L577.5 472.5M598.5 535.5L577.5 514.5M598.5 577.5L598.5 556.5L598.5 535.5L598.5 514.5L598.5 493.5L598.5 472.5L598.5 451.5L598.5 430.5L598.5 409.5L598.5 388.5" stroke="#dd1133" stroke-width="3.5"></path><path d="M593.25 388.5 a5.25 5.25 0 1 0 10.5 0 a5.25 5.25 0 1 0 -10.5 0zM572.25 451.5 a5.25 5.25 0 1 0 10.5 0 a5.25 5.25 0 1 0 -10.5 0zM572.25 472.5 a5.25 5.25 0 1 0 10.5 0 a5.25 5.25 0 1 0 -10.5 0zM572.25 514.5 a5.25 5.25 0 1 0 10.5 0 a5.25 5.25 0 1 0 -10.5 0z" fill="#dd1133"></path><path d="M850.5 556.5L871.5 535.5L871.5 514.5M871.5 388.5L892.5 367.5L913.5 346.5L913.5 325.5M871.5 451.5L892.5 430.5L892.5 409.5M850.5 577.5L850.5 556.5L850.5 535.5L850.5 514.5L871.5 493.5L871.5 472.5L871.5 451.5L871.5 430.5L871.5 409.5L871.5 388.5L871.5 367.5" stroke="#3a7cc3" stroke-width="3.5"></path><path d="M866.25 367.5 a5.25 5.25 0 1 0 10.5 0 a5.25 5.25 0 1 0 -10.5 0zM866.25 514.5 a5.25 5.25 0 1 0 10.5 0 a5.25 5.25 0 1 0 -10.5 0zM908.25 325.5 a5.25 5.25 0 1 0 10.5 0 a5.25 5.25 0 1 0 -10.5 0zM887.25 409.5 a5.25 5.25 0 1 0 10.5 0 a5.25 5.25 0 1 0 -10.5 0z" fill="#3a7cc3"></path><path d="M577.5 556.5L577.5 535.5M577.5 577.5L577.5 556.5L556.5 535.5L556.5 514.5L556.5 493.5L556.5 472.5L556.5 451.5" stroke="#3a7cc3" stroke-width="3.5"></path><path d="M551.25 451.5 a5.25 5.25 0 1 0 10.5 0 a5.25 5.25 0 1 0 -10.5 0zM572.25 535.5 a5.25 5.25 0 1 0 10.5 0 a5.25 5.25 0 1 0 -10.5 0z" fill="#3a7cc3"></path><path d="M514.5 409.5L535.5 388.5L535.5 367.5M514.5 430.5L535.5 409.5M514.5 451.5L535.5 430.5L556.5 409.5M556.5 577.5L556.5 556.5L535.5 535.5L535.5 514.5L535.5 493.5L535.5 472.5L514.5 451.5L514.5 430.5L514.5 409.5L514.5 388.5" stroke="#3a7cc3" stroke-width="3.5"></path><path d="M509.25 388.5 a5.25 5.25 0 1 0 10.5 0 a5.25 5.25 0 1 0 -10.5 0zM530.25 367.5 a5.25 5.25 0 1 0 10.5 0 a5.25 5.25 0 1 0 -10.5 0zM530.25 409.5 a5.25 5.25 0 1 0 10.5 0 a5.25 5.25 0 1 0 -10.5 0zM551.25 409.5 a5.25 5.25 0 1 0 10.5 0 a5.25 5.25 0 1 0 -10.5 0z" fill="#3a7cc3"></path><path d="M493.5 430.5L472.5 409.5L472.5 388.5L472.5 367.5L472.5 346.5M535.5 577.5L535.5 556.5L514.5 535.5L514.5 514.5L514.5 493.5L514.5 472.5L493.5 451.5L493.5 430.5L493.5 409.5L493.5 388.5L493.5 367.5" stroke="#dd1133" stroke-width="3.5"></path><path d="M488.25 367.5 a5.25 5.25 0 1 0 10.5 0 a5.25 5.25 0 1 0 -10.5 0zM467.25 346.5 a5.25 5.25 0 1 0 10.5 0 a5.25 5.25 0 1 0 -10.5 0z" fill="#dd1133"></path><path d="M913.5 535.5L892.5 514.5L892.5 493.5M913.5 388.5L934.5 367.5M913.5 409.5L934.5 388.5L955.5 367.5L955.5 346.5M913.5 577.5L913.5 556.5L913.5 535.5L913.5 514.5L913.5 493.5L913.5 472.5L913.5 451.5L913.5 430.5L913.5 409.5L913.5 388.5L913.5 367.5" stroke="#dd1133" stroke-width="3.5"></path><path d="M908.25 367.5 a5.25 5.25 0 1 0 10.5 0 a5.25 5.25 0 1 0 -10.5 0zM887.25 493.5 a5.25 5.25 0 1 0 10.5 0 a5.25 5.25 0 1 0 -10.5 0zM929.25 367.5 a5.25 5.25 0 1 0 10.5 0 a5.25 5.25 0 1 0 -10.5 0zM950.25 346.5 a5.25 5.25 0 1 0 10.5 0 a5.25 5.25 0 1 0 -10.5 0z" fill="#dd1133"></path><path d="M493.5 493.5L472.5 472.5L451.5 451.5L451.5 430.5L451.5 409.5M493.5 514.5L472.5 493.5M514.5 577.5L514.5 556.5L493.5 535.5L493.5 514.5L493.5 493.5L493.5 472.5L472.5 451.5" stroke="#3a7cc3" stroke-width="3.5"></path><path d="M467.25 451.5 a5.25 5.25 0 1 0 10.5 0 a5.25 5.25 0 1 0 -10.5 0zM446.25 409.5 a5.25 5.25 0 1 0 10.5 0 a5.25 5.25 0 1 0 -10.5 0zM467.25 493.5 a5.25 5.25 0 1 0 10.5 0 a5.25 5.25 0 1 0 -10.5 0z" fill="#3a7cc3"></path><path d="M934.5 577.5L934.5 556.5L934.5 535.5L955.5 514.5" stroke="#dd1133" stroke-width="3.5"></path><path d="M950.25 514.5 a5.25 5.25 0 1 0 10.5 0 a5.25 5.25 0 1 0 -10.5 0z" fill="#dd1133"></path><path d="M493.5 577.5L472.5 556.5L472.5 535.5L451.5 514.5L451.5 493.5" stroke="#3a7cc3" stroke-width="3.5"></path><path d="M446.25 493.5 a5.25 5.25 0 1 0 10.5 0 a5.25 5.25 0 1 0 -10.5 0z" fill="#3a7cc3"></path><path d="M955.5 577.5L955.5 556.5L955.5 535.5L976.5 514.5L976.5 493.5L976.5 472.5" stroke="#dd1133" stroke-width="3.5"></path><path d="M971.25 472.5 a5.25 5.25 0 1 0 10.5 0 a5.25 5.25 0 1 0 -10.5 0z" fill="#dd1133"></path><path d="M997.5 514.5L997.5 493.5M976.5 577.5L976.5 556.5L976.5 535.5L997.5 514.5L1018.5 493.5" stroke="#dd1133" stroke-width="3.5"></path><path d="M1013.25 493.5 a5.25 5.25 0 1 0 10.5 0 a5.25 5.25 0 1 0 -10.5 0zM992.25 493.5 a5.25 5.25 0 1 0 10.5 0 a5.25 5.25 0 1 0 -10.5 0z" fill="#dd1133"></path><path d="M451.5 577.5L451.5 556.5L451.5 535.5L430.5 514.5L430.5 493.5L430.5 472.5" stroke="#3a7cc3" stroke-width="3.5"></path><path d="M425.25 472.5 a5.25 5.25 0 1 0 10.5 0 a5.25 5.25 0 1 0 -10.5 0z" fill="#3a7cc3"></path><path d="M997.5 577.5L997.5 556.5L997.5 535.5L1018.5 514.5" stroke="#dd1133" stroke-width="3.5"></path><path d="M1013.25 514.5 a5.25 5.25 0 1 0 10.5 0 a5.25 5.25 0 1 0 -10.5 0z" fill="#dd1133"></path><path d="M430.5 577.5L430.5 556.5L430.5 535.5L409.5 514.5L409.5 493.5L409.5 472.5L409.5 451.5L409.5 430.5" stroke="#3a7cc3" stroke-width="3.5"></path><path d="M404.25 430.5 a5.25 5.25 0 1 0 10.5 0 a5.25 5.25 0 1 0 -10.5 0z" fill="#3a7cc3"></path><path d="M1018.5 577.5L1039.5 556.5L1039.5 535.5" stroke="#dd1133" stroke-width="3.5"></path><path d="M1034.25 535.5 a5.25 5.25 0 1 0 10.5 0 a5.25 5.25 0 1 0 -10.5 0z" fill="#dd1133"></path><path d="M388.5 346.5L367.5 325.5M388.5 388.5L409.5 367.5L409.5 346.5M388.5 430.5L367.5 409.5M409.5 577.5L409.5 556.5L409.5 535.5L388.5 514.5L388.5 493.5L388.5 472.5L388.5 451.5L388.5 430.5L388.5 409.5L388.5 388.5L388.5 367.5L388.5 346.5L388.5 325.5" stroke="#3a7cc3" stroke-width="3.5"></path><path d="M383.25 325.5 a5.25 5.25 0 1 0 10.5 0 a5.25 5.25 0 1 0 -10.5 0zM362.25 325.5 a5.25 5.25 0 1 0 10.5 0 a5.25 5.25 0 1 0 -10.5 0zM404.25 346.5 a5.25 5.25 0 1 0 10.5 0 a5.25 5.25 0 1 0 -10.5 0zM362.25 409.5 a5.25 5.25 0 1 0 10.5 0 a5.25 5.25 0 1 0 -10.5 0z" fill="#3a7cc3"></path><path d="M346.5 388.5L367.5 367.5L367.5 346.5M346.5 367.5L325.5 346.5L325.5 325.5M367.5 451.5L367.5 430.5M388.5 577.5L388.5 556.5L388.5 535.5L367.5 514.5L367.5 493.5L367.5 472.5L367.5 451.5L346.5 430.5L346.5 409.5L346.5 388.5L346.5 367.5L346.5 346.5L346.5 325.5" stroke="#dd1133" stroke-width="3.5"></path><path d="M341.25 325.5 a5.25 5.25 0 1 0 10.5 0 a5.25 5.25 0 1 0 -10.5 0zM362.25 346.5 a5.25 5.25 0 1 0 10.5 0 a5.25 5.25 0 1 0 -10.5 0zM320.25 325.5 a5.25 5.25 0 1 0 10.5 0 a5.25 5.25 0 1 0 -10.5 0zM362.25 430.5 a5.25 5.25 0 1 0 10.5 0 a5.25 5.25 0 1 0 -10.5 0z" fill="#dd1133"></path><path d="M1060.5 535.5L1081.5 514.5L1102.5 493.5L1102.5 472.5M1081.5 472.5L1060.5 451.5L1060.5 430.5L1039.5 409.5L1039.5 388.5M1081.5 451.5L1102.5 430.5L1102.5 409.5M1060.5 577.5L1060.5 556.5L1060.5 535.5L1060.5 514.5L1081.5 493.5L1081.5 472.5L1081.5 451.5L1081.5 430.5L1060.5 409.5" stroke="#dd1133" stroke-width="3.5"></path><path d="M1055.25 409.5 a5.25 5.25 0 1 0 10.5 0 a5.25 5.25 0 1 0 -10.5 0zM1097.25 472.5 a5.25 5.25 0 1 0 10.5 0 a5.25 5.25 0 1 0 -10.5 0zM1034.25 388.5 a5.25 5.25 0 1 0 10.5 0 a5.25 5.25 0 1 0 -10.5 0zM1097.25 409.5 a5.25 5.25 0 1 0 10.5 0 a5.25 5.25 0 1 0 -10.5 0z" fill="#dd1133"></path><path d="M325.5 430.5L304.5 409.5L304.5 388.5M346.5 472.5L325.5 451.5M346.5 493.5L325.5 472.5M367.5 577.5L367.5 556.5L346.5 535.5L346.5 514.5L346.5 493.5L346.5 472.5L346.5 451.5L325.5 430.5L325.5 409.5" stroke="#3a7cc3" stroke-width="3.5"></path><path d="M320.25 409.5 a5.25 5.25 0 1 0 10.5 0 a5.25 5.25 0 1 0 -10.5 0zM299.25 388.5 a5.25 5.25 0 1 0 10.5 0 a5.25 5.25 0 1 0 -10.5 0zM320.25 451.5 a5.25 5.25 0 1 0 10.5 0 a5.25 5.25 0 1 0 -10.5 0zM320.25 472.5 a5.25 5.25 0 1 0 10.5 0 a5.25 5.25 0 1 0 -10.5 0z" fill="#3a7cc3"></path></g></g><defs><mask id="SvgjsMask1018"><rect width="1440" height="560" fill="#ffffff"></rect></mask><mask id="SvgjsMask1019"><rect width="1440" height="560" fill="white"></rect><path d="M721.87 535.5 a2.63 2.63 0 1 0 5.26 0 a2.63 2.63 0 1 0 -5.26 0z" fill="black"></path><path d="M700.87 556.5 a2.63 2.63 0 1 0 5.26 0 a2.63 2.63 0 1 0 -5.26 0z" fill="black"></path><path d="M763.87 388.5 a2.63 2.63 0 1 0 5.26 0 a2.63 2.63 0 1 0 -5.26 0zM742.87 346.5 a2.63 2.63 0 1 0 5.26 0 a2.63 2.63 0 1 0 -5.26 0zM721.87 430.5 a2.63 2.63 0 1 0 5.26 0 a2.63 2.63 0 1 0 -5.26 0zM742.87 430.5 a2.63 2.63 0 1 0 5.26 0 a2.63 2.63 0 1 0 -5.26 0z" fill="black"></path><path d="M679.87 514.5 a2.63 2.63 0 1 0 5.26 0 a2.63 2.63 0 1 0 -5.26 0zM700.87 472.5 a2.63 2.63 0 1 0 5.26 0 a2.63 2.63 0 1 0 -5.26 0z" fill="black"></path><path d="M763.87 514.5 a2.63 2.63 0 1 0 5.26 0 a2.63 2.63 0 1 0 -5.26 0z" fill="black"></path><path d="M658.87 388.5 a2.63 2.63 0 1 0 5.26 0 a2.63 2.63 0 1 0 -5.26 0zM679.87 346.5 a2.63 2.63 0 1 0 5.26 0 a2.63 2.63 0 1 0 -5.26 0zM658.87 430.5 a2.63 2.63 0 1 0 5.26 0 a2.63 2.63 0 1 0 -5.26 0zM637.87 409.5 a2.63 2.63 0 1 0 5.26 0 a2.63 2.63 0 1 0 -5.26 0z" fill="black"></path><path d="M805.87 367.5 a2.63 2.63 0 1 0 5.26 0 a2.63 2.63 0 1 0 -5.26 0zM805.87 409.5 a2.63 2.63 0 1 0 5.26 0 a2.63 2.63 0 1 0 -5.26 0zM805.87 430.5 a2.63 2.63 0 1 0 5.26 0 a2.63 2.63 0 1 0 -5.26 0zM784.87 346.5 a2.63 2.63 0 1 0 5.26 0 a2.63 2.63 0 1 0 -5.26 0z" fill="black"></path><path d="M637.87 535.5 a2.63 2.63 0 1 0 5.26 0 a2.63 2.63 0 1 0 -5.26 0z" fill="black"></path><path d="M826.87 325.5 a2.63 2.63 0 1 0 5.26 0 a2.63 2.63 0 1 0 -5.26 0zM847.87 367.5 a2.63 2.63 0 1 0 5.26 0 a2.63 2.63 0 1 0 -5.26 0zM805.87 451.5 a2.63 2.63 0 1 0 5.26 0 a2.63 2.63 0 1 0 -5.26 0zM847.87 409.5 a2.63 2.63 0 1 0 5.26 0 a2.63 2.63 0 1 0 -5.26 0z" fill="black"></path><path d="M616.87 409.5 a2.63 2.63 0 1 0 5.26 0 a2.63 2.63 0 1 0 -5.26 0z" fill="black"></path><path d="M847.87 451.5 a2.63 2.63 0 1 0 5.26 0 a2.63 2.63 0 1 0 -5.26 0zM847.87 472.5 a2.63 2.63 0 1 0 5.26 0 a2.63 2.63 0 1 0 -5.26 0z" fill="black"></path><path d="M595.87 388.5 a2.63 2.63 0 1 0 5.26 0 a2.63 2.63 0 1 0 -5.26 0zM574.87 451.5 a2.63 2.63 0 1 0 5.26 0 a2.63 2.63 0 1 0 -5.26 0zM574.87 472.5 a2.63 2.63 0 1 0 5.26 0 a2.63 2.63 0 1 0 -5.26 0zM574.87 514.5 a2.63 2.63 0 1 0 5.26 0 a2.63 2.63 0 1 0 -5.26 0z" fill="black"></path><path d="M868.87 367.5 a2.63 2.63 0 1 0 5.26 0 a2.63 2.63 0 1 0 -5.26 0zM868.87 514.5 a2.63 2.63 0 1 0 5.26 0 a2.63 2.63 0 1 0 -5.26 0zM910.87 325.5 a2.63 2.63 0 1 0 5.26 0 a2.63 2.63 0 1 0 -5.26 0zM889.87 409.5 a2.63 2.63 0 1 0 5.26 0 a2.63 2.63 0 1 0 -5.26 0z" fill="black"></path><path d="M553.87 451.5 a2.63 2.63 0 1 0 5.26 0 a2.63 2.63 0 1 0 -5.26 0zM574.87 535.5 a2.63 2.63 0 1 0 5.26 0 a2.63 2.63 0 1 0 -5.26 0z" fill="black"></path><path d="M511.87 388.5 a2.63 2.63 0 1 0 5.26 0 a2.63 2.63 0 1 0 -5.26 0zM532.87 367.5 a2.63 2.63 0 1 0 5.26 0 a2.63 2.63 0 1 0 -5.26 0zM532.87 409.5 a2.63 2.63 0 1 0 5.26 0 a2.63 2.63 0 1 0 -5.26 0zM553.87 409.5 a2.63 2.63 0 1 0 5.26 0 a2.63 2.63 0 1 0 -5.26 0z" fill="black"></path><path d="M490.87 367.5 a2.63 2.63 0 1 0 5.26 0 a2.63 2.63 0 1 0 -5.26 0zM469.87 346.5 a2.63 2.63 0 1 0 5.26 0 a2.63 2.63 0 1 0 -5.26 0z" fill="black"></path><path d="M910.87 367.5 a2.63 2.63 0 1 0 5.26 0 a2.63 2.63 0 1 0 -5.26 0zM889.87 493.5 a2.63 2.63 0 1 0 5.26 0 a2.63 2.63 0 1 0 -5.26 0zM931.87 367.5 a2.63 2.63 0 1 0 5.26 0 a2.63 2.63 0 1 0 -5.26 0zM952.87 346.5 a2.63 2.63 0 1 0 5.26 0 a2.63 2.63 0 1 0 -5.26 0z" fill="black"></path><path d="M469.87 451.5 a2.63 2.63 0 1 0 5.26 0 a2.63 2.63 0 1 0 -5.26 0zM448.87 409.5 a2.63 2.63 0 1 0 5.26 0 a2.63 2.63 0 1 0 -5.26 0zM469.87 493.5 a2.63 2.63 0 1 0 5.26 0 a2.63 2.63 0 1 0 -5.26 0z" fill="black"></path><path d="M952.87 514.5 a2.63 2.63 0 1 0 5.26 0 a2.63 2.63 0 1 0 -5.26 0z" fill="black"></path><path d="M448.87 493.5 a2.63 2.63 0 1 0 5.26 0 a2.63 2.63 0 1 0 -5.26 0z" fill="black"></path><path d="M973.87 472.5 a2.63 2.63 0 1 0 5.26 0 a2.63 2.63 0 1 0 -5.26 0z" fill="black"></path><path d="M1015.87 493.5 a2.63 2.63 0 1 0 5.26 0 a2.63 2.63 0 1 0 -5.26 0zM994.87 493.5 a2.63 2.63 0 1 0 5.26 0 a2.63 2.63 0 1 0 -5.26 0z" fill="black"></path><path d="M427.87 472.5 a2.63 2.63 0 1 0 5.26 0 a2.63 2.63 0 1 0 -5.26 0z" fill="black"></path><path d="M1015.87 514.5 a2.63 2.63 0 1 0 5.26 0 a2.63 2.63 0 1 0 -5.26 0z" fill="black"></path><path d="M406.87 430.5 a2.63 2.63 0 1 0 5.26 0 a2.63 2.63 0 1 0 -5.26 0z" fill="black"></path><path d="M1036.87 535.5 a2.63 2.63 0 1 0 5.26 0 a2.63 2.63 0 1 0 -5.26 0z" fill="black"></path><path d="M385.87 325.5 a2.63 2.63 0 1 0 5.26 0 a2.63 2.63 0 1 0 -5.26 0zM364.87 325.5 a2.63 2.63 0 1 0 5.26 0 a2.63 2.63 0 1 0 -5.26 0zM406.87 346.5 a2.63 2.63 0 1 0 5.26 0 a2.63 2.63 0 1 0 -5.26 0zM364.87 409.5 a2.63 2.63 0 1 0 5.26 0 a2.63 2.63 0 1 0 -5.26 0z" fill="black"></path><path d="M343.87 325.5 a2.63 2.63 0 1 0 5.26 0 a2.63 2.63 0 1 0 -5.26 0zM364.87 346.5 a2.63 2.63 0 1 0 5.26 0 a2.63 2.63 0 1 0 -5.26 0zM322.87 325.5 a2.63 2.63 0 1 0 5.26 0 a2.63 2.63 0 1 0 -5.26 0zM364.87 430.5 a2.63 2.63 0 1 0 5.26 0 a2.63 2.63 0 1 0 -5.26 0z" fill="black"></path><path d="M1057.87 409.5 a2.63 2.63 0 1 0 5.26 0 a2.63 2.63 0 1 0 -5.26 0zM1099.87 472.5 a2.63 2.63 0 1 0 5.26 0 a2.63 2.63 0 1 0 -5.26 0zM1036.87 388.5 a2.63 2.63 0 1 0 5.26 0 a2.63 2.63 0 1 0 -5.26 0zM1099.87 409.5 a2.63 2.63 0 1 0 5.26 0 a2.63 2.63 0 1 0 -5.26 0z" fill="black"></path><path d="M322.87 409.5 a2.63 2.63 0 1 0 5.26 0 a2.63 2.63 0 1 0 -5.26 0zM301.87 388.5 a2.63 2.63 0 1 0 5.26 0 a2.63 2.63 0 1 0 -5.26 0zM322.87 451.5 a2.63 2.63 0 1 0 5.26 0 a2.63 2.63 0 1 0 -5.26 0zM322.87 472.5 a2.63 2.63 0 1 0 5.26 0 a2.63 2.63 0 1 0 -5.26 0z" fill="black"></path></mask></defs></svg>