<svg xmlns="http://www.w3.org/2000/svg" version="1.1" xmlns:xlink="http://www.w3.org/1999/xlink" xmlns:svgjs="http://svgjs.com/svgjs" width="1440" height="560" preserveAspectRatio="none" viewBox="0 0 1440 560"><g mask="url(&quot;#SvgjsMask1292&quot;)" fill="none"><rect width="1440" height="560" x="0" y="0" fill="#0e2a47"></rect><g mask="url(&quot;#SvgjsMask1293&quot;)"><path d="M1060.5 283.5L1039.5 262.5M1270.5 262.5L1249.5 283.5L1228.5 283.5L1207.5 283.5L1186.5 283.5M1312.5 262.5L1291.5 283.5L1270.5 283.5M1417.5 262.5L1396.5 283.5L1375.5 283.5L1354.5 283.5L1333.5 283.5M1123.5 262.5L1102.5 262.5M1459.5 283.5L1438.5 262.5L1417.5 262.5L1396.5 262.5L1375.5 262.5L1354.5 262.5L1333.5 262.5L1312.5 262.5L1291.5 262.5L1270.5 262.5L1249.5 262.5L1228.5 262.5L1207.5 262.5L1186.5 262.5L1165.5 262.5L1144.5 262.5L1123.5 262.5L1102.5 283.5L1081.5 283.5L1060.5 283.5L1039.5 283.5L1018.5 283.5" stroke="#3a7cc3" stroke-width="3.5"></path><path d="M1013.25 283.5 a5.25 5.25 0 1 0 10.5 0 a5.25 5.25 0 1 0 -10.5 0zM1034.25 262.5 a5.25 5.25 0 1 0 10.5 0 a5.25 5.25 0 1 0 -10.5 0zM1181.25 283.5 a5.25 5.25 0 1 0 10.5 0 a5.25 5.25 0 1 0 -10.5 0zM1265.25 283.5 a5.25 5.25 0 1 0 10.5 0 a5.25 5.25 0 1 0 -10.5 0zM1328.25 283.5 a5.25 5.25 0 1 0 10.5 0 a5.25 5.25 0 1 0 -10.5 0zM1097.25 262.5 a5.25 5.25 0 1 0 10.5 0 a5.25 5.25 0 1 0 -10.5 0z" fill="#3a7cc3"></path><path d="M1102.5 304.5L1081.5 325.5L1060.5 325.5L1039.5 325.5L1018.5 346.5M871.5 346.5L850.5 346.5L829.5 346.5L808.5 346.5M934.5 325.5L913.5 325.5L892.5 325.5L871.5 325.5M1144.5 304.5L1123.5 325.5L1102.5 325.5L1081.5 346.5L1060.5 346.5L1039.5 346.5L1018.5 367.5M1186.5 304.5L1165.5 325.5L1144.5 325.5L1123.5 346.5L1102.5 346.5M1396.5 304.5L1375.5 325.5L1354.5 325.5L1333.5 325.5M976.5 325.5L955.5 304.5L934.5 304.5L913.5 304.5L892.5 304.5L871.5 304.5L850.5 304.5L829.5 304.5M1018.5 325.5L997.5 304.5L976.5 304.5M1459.5 304.5L1438.5 304.5L1417.5 304.5L1396.5 304.5L1375.5 304.5L1354.5 304.5L1333.5 304.5L1312.5 304.5L1291.5 304.5L1270.5 304.5L1249.5 304.5L1228.5 304.5L1207.5 304.5L1186.5 304.5L1165.5 304.5L1144.5 304.5L1123.5 304.5L1102.5 304.5L1081.5 304.5L1060.5 304.5L1039.5 304.5L1018.5 325.5L997.5 325.5L976.5 325.5L955.5 325.5L934.5 325.5L913.5 346.5L892.5 346.5L871.5 346.5L850.5 367.5L829.5 367.5L808.5 367.5" stroke="#dd1133" stroke-width="3.5"></path><path d="M803.25 367.5 a5.25 5.25 0 1 0 10.5 0 a5.25 5.25 0 1 0 -10.5 0zM1013.25 346.5 a5.25 5.25 0 1 0 10.5 0 a5.25 5.25 0 1 0 -10.5 0zM803.25 346.5 a5.25 5.25 0 1 0 10.5 0 a5.25 5.25 0 1 0 -10.5 0zM866.25 325.5 a5.25 5.25 0 1 0 10.5 0 a5.25 5.25 0 1 0 -10.5 0zM1013.25 367.5 a5.25 5.25 0 1 0 10.5 0 a5.25 5.25 0 1 0 -10.5 0zM1097.25 346.5 a5.25 5.25 0 1 0 10.5 0 a5.25 5.25 0 1 0 -10.5 0zM1328.25 325.5 a5.25 5.25 0 1 0 10.5 0 a5.25 5.25 0 1 0 -10.5 0zM824.25 304.5 a5.25 5.25 0 1 0 10.5 0 a5.25 5.25 0 1 0 -10.5 0zM971.25 304.5 a5.25 5.25 0 1 0 10.5 0 a5.25 5.25 0 1 0 -10.5 0z" fill="#dd1133"></path><path d="M1144.5 220.5L1123.5 241.5L1102.5 241.5M1270.5 241.5L1249.5 220.5M1123.5 220.5L1102.5 199.5L1081.5 199.5L1060.5 199.5L1039.5 199.5L1018.5 199.5M1018.5 220.5L997.5 220.5L976.5 220.5M1291.5 241.5L1270.5 220.5L1249.5 199.5L1228.5 199.5L1207.5 199.5L1186.5 199.5M1186.5 220.5L1165.5 241.5M1459.5 241.5L1438.5 241.5L1417.5 241.5L1396.5 241.5L1375.5 241.5L1354.5 241.5L1333.5 241.5L1312.5 241.5L1291.5 241.5L1270.5 241.5L1249.5 241.5L1228.5 220.5L1207.5 220.5L1186.5 220.5L1165.5 220.5L1144.5 220.5L1123.5 220.5L1102.5 220.5L1081.5 220.5L1060.5 220.5L1039.5 220.5L1018.5 220.5L997.5 199.5L976.5 199.5L955.5 199.5L934.5 199.5" stroke="#dd1133" stroke-width="3.5"></path><path d="M929.25 199.5 a5.25 5.25 0 1 0 10.5 0 a5.25 5.25 0 1 0 -10.5 0zM1097.25 241.5 a5.25 5.25 0 1 0 10.5 0 a5.25 5.25 0 1 0 -10.5 0zM1244.25 220.5 a5.25 5.25 0 1 0 10.5 0 a5.25 5.25 0 1 0 -10.5 0zM1013.25 199.5 a5.25 5.25 0 1 0 10.5 0 a5.25 5.25 0 1 0 -10.5 0zM971.25 220.5 a5.25 5.25 0 1 0 10.5 0 a5.25 5.25 0 1 0 -10.5 0zM1181.25 199.5 a5.25 5.25 0 1 0 10.5 0 a5.25 5.25 0 1 0 -10.5 0zM1160.25 241.5 a5.25 5.25 0 1 0 10.5 0 a5.25 5.25 0 1 0 -10.5 0z" fill="#dd1133"></path><path d="M1459.5 220.5L1438.5 220.5L1417.5 220.5L1396.5 220.5L1375.5 220.5L1354.5 220.5L1333.5 220.5L1312.5 220.5" stroke="#dd1133" stroke-width="3.5"></path><path d="M1307.25 220.5 a5.25 5.25 0 1 0 10.5 0 a5.25 5.25 0 1 0 -10.5 0z" fill="#dd1133"></path><path d="M1228.5 346.5L1207.5 325.5L1186.5 325.5M1312.5 346.5L1291.5 325.5L1270.5 325.5L1249.5 325.5L1228.5 325.5M1417.5 346.5L1396.5 325.5M1438.5 346.5L1417.5 325.5M1459.5 346.5L1438.5 346.5L1417.5 346.5L1396.5 346.5L1375.5 346.5L1354.5 346.5L1333.5 346.5L1312.5 346.5L1291.5 346.5L1270.5 346.5L1249.5 346.5L1228.5 346.5L1207.5 346.5L1186.5 346.5L1165.5 346.5L1144.5 367.5L1123.5 367.5" stroke="#dd1133" stroke-width="3.5"></path><path d="M1118.25 367.5 a5.25 5.25 0 1 0 10.5 0 a5.25 5.25 0 1 0 -10.5 0zM1181.25 325.5 a5.25 5.25 0 1 0 10.5 0 a5.25 5.25 0 1 0 -10.5 0zM1223.25 325.5 a5.25 5.25 0 1 0 10.5 0 a5.25 5.25 0 1 0 -10.5 0zM1391.25 325.5 a5.25 5.25 0 1 0 10.5 0 a5.25 5.25 0 1 0 -10.5 0zM1412.25 325.5 a5.25 5.25 0 1 0 10.5 0 a5.25 5.25 0 1 0 -10.5 0z" fill="#dd1133"></path><path d="M1039.5 178.5L1018.5 157.5L997.5 157.5L976.5 157.5L955.5 157.5L934.5 157.5M1186.5 178.5L1165.5 157.5M1438.5 199.5L1417.5 178.5L1396.5 178.5L1375.5 178.5M1165.5 178.5L1144.5 199.5L1123.5 199.5M1207.5 178.5L1186.5 157.5M1459.5 199.5L1438.5 199.5L1417.5 199.5L1396.5 199.5L1375.5 199.5L1354.5 199.5L1333.5 199.5L1312.5 178.5L1291.5 178.5L1270.5 178.5L1249.5 178.5L1228.5 178.5L1207.5 178.5L1186.5 178.5L1165.5 178.5L1144.5 178.5L1123.5 178.5L1102.5 178.5L1081.5 178.5L1060.5 178.5L1039.5 178.5L1018.5 178.5L997.5 178.5" stroke="#3a7cc3" stroke-width="3.5"></path><path d="M992.25 178.5 a5.25 5.25 0 1 0 10.5 0 a5.25 5.25 0 1 0 -10.5 0zM929.25 157.5 a5.25 5.25 0 1 0 10.5 0 a5.25 5.25 0 1 0 -10.5 0zM1160.25 157.5 a5.25 5.25 0 1 0 10.5 0 a5.25 5.25 0 1 0 -10.5 0zM1370.25 178.5 a5.25 5.25 0 1 0 10.5 0 a5.25 5.25 0 1 0 -10.5 0zM1118.25 199.5 a5.25 5.25 0 1 0 10.5 0 a5.25 5.25 0 1 0 -10.5 0zM1181.25 157.5 a5.25 5.25 0 1 0 10.5 0 a5.25 5.25 0 1 0 -10.5 0z" fill="#3a7cc3"></path><path d="M1459.5 367.5L1438.5 367.5L1417.5 367.5L1396.5 367.5L1375.5 367.5L1354.5 367.5L1333.5 367.5L1312.5 367.5L1291.5 367.5L1270.5 367.5L1249.5 367.5L1228.5 367.5L1207.5 367.5L1186.5 367.5" stroke="#3a7cc3" stroke-width="3.5"></path><path d="M1181.25 367.5 a5.25 5.25 0 1 0 10.5 0 a5.25 5.25 0 1 0 -10.5 0z" fill="#3a7cc3"></path><path d="M1354.5 178.5L1333.5 157.5L1312.5 136.5L1291.5 136.5L1270.5 136.5M1249.5 157.5L1228.5 157.5M1417.5 157.5L1396.5 136.5L1375.5 136.5L1354.5 136.5M1459.5 178.5L1438.5 157.5L1417.5 157.5L1396.5 157.5L1375.5 157.5L1354.5 178.5L1333.5 178.5L1312.5 157.5L1291.5 157.5L1270.5 157.5L1249.5 157.5L1228.5 136.5L1207.5 136.5" stroke="#3a7cc3" stroke-width="3.5"></path><path d="M1202.25 136.5 a5.25 5.25 0 1 0 10.5 0 a5.25 5.25 0 1 0 -10.5 0zM1265.25 136.5 a5.25 5.25 0 1 0 10.5 0 a5.25 5.25 0 1 0 -10.5 0zM1223.25 157.5 a5.25 5.25 0 1 0 10.5 0 a5.25 5.25 0 1 0 -10.5 0zM1349.25 136.5 a5.25 5.25 0 1 0 10.5 0 a5.25 5.25 0 1 0 -10.5 0z" fill="#3a7cc3"></path><path d="M1312.5 388.5L1291.5 409.5M1270.5 388.5L1249.5 409.5M1438.5 388.5L1417.5 409.5M1333.5 388.5L1312.5 409.5L1291.5 430.5L1270.5 430.5L1249.5 430.5M1144.5 388.5L1123.5 409.5L1102.5 409.5L1081.5 409.5L1060.5 430.5M1459.5 388.5L1438.5 388.5L1417.5 388.5L1396.5 388.5L1375.5 388.5L1354.5 388.5L1333.5 388.5L1312.5 388.5L1291.5 388.5L1270.5 388.5L1249.5 388.5L1228.5 388.5L1207.5 388.5L1186.5 388.5L1165.5 388.5L1144.5 388.5L1123.5 388.5L1102.5 388.5L1081.5 388.5L1060.5 388.5L1039.5 388.5" stroke="#dd1133" stroke-width="3.5"></path><path d="M1034.25 388.5 a5.25 5.25 0 1 0 10.5 0 a5.25 5.25 0 1 0 -10.5 0zM1286.25 409.5 a5.25 5.25 0 1 0 10.5 0 a5.25 5.25 0 1 0 -10.5 0zM1244.25 409.5 a5.25 5.25 0 1 0 10.5 0 a5.25 5.25 0 1 0 -10.5 0zM1412.25 409.5 a5.25 5.25 0 1 0 10.5 0 a5.25 5.25 0 1 0 -10.5 0zM1244.25 430.5 a5.25 5.25 0 1 0 10.5 0 a5.25 5.25 0 1 0 -10.5 0zM1055.25 430.5 a5.25 5.25 0 1 0 10.5 0 a5.25 5.25 0 1 0 -10.5 0z" fill="#dd1133"></path></g></g><defs><mask id="SvgjsMask1292"><rect width="1440" height="560" fill="#ffffff"></rect></mask><mask id="SvgjsMask1293"><rect width="1440" height="560" fill="white"></rect><path d="M1015.87 283.5 a2.63 2.63 0 1 0 5.26 0 a2.63 2.63 0 1 0 -5.26 0zM1036.87 262.5 a2.63 2.63 0 1 0 5.26 0 a2.63 2.63 0 1 0 -5.26 0zM1183.87 283.5 a2.63 2.63 0 1 0 5.26 0 a2.63 2.63 0 1 0 -5.26 0zM1267.87 283.5 a2.63 2.63 0 1 0 5.26 0 a2.63 2.63 0 1 0 -5.26 0zM1330.87 283.5 a2.63 2.63 0 1 0 5.26 0 a2.63 2.63 0 1 0 -5.26 0zM1099.87 262.5 a2.63 2.63 0 1 0 5.26 0 a2.63 2.63 0 1 0 -5.26 0z" fill="black"></path><path d="M805.87 367.5 a2.63 2.63 0 1 0 5.26 0 a2.63 2.63 0 1 0 -5.26 0zM1015.87 346.5 a2.63 2.63 0 1 0 5.26 0 a2.63 2.63 0 1 0 -5.26 0zM805.87 346.5 a2.63 2.63 0 1 0 5.26 0 a2.63 2.63 0 1 0 -5.26 0zM868.87 325.5 a2.63 2.63 0 1 0 5.26 0 a2.63 2.63 0 1 0 -5.26 0zM1015.87 367.5 a2.63 2.63 0 1 0 5.26 0 a2.63 2.63 0 1 0 -5.26 0zM1099.87 346.5 a2.63 2.63 0 1 0 5.26 0 a2.63 2.63 0 1 0 -5.26 0zM1330.87 325.5 a2.63 2.63 0 1 0 5.26 0 a2.63 2.63 0 1 0 -5.26 0zM826.87 304.5 a2.63 2.63 0 1 0 5.26 0 a2.63 2.63 0 1 0 -5.26 0zM973.87 304.5 a2.63 2.63 0 1 0 5.26 0 a2.63 2.63 0 1 0 -5.26 0z" fill="black"></path><path d="M931.87 199.5 a2.63 2.63 0 1 0 5.26 0 a2.63 2.63 0 1 0 -5.26 0zM1099.87 241.5 a2.63 2.63 0 1 0 5.26 0 a2.63 2.63 0 1 0 -5.26 0zM1246.87 220.5 a2.63 2.63 0 1 0 5.26 0 a2.63 2.63 0 1 0 -5.26 0zM1015.87 199.5 a2.63 2.63 0 1 0 5.26 0 a2.63 2.63 0 1 0 -5.26 0zM973.87 220.5 a2.63 2.63 0 1 0 5.26 0 a2.63 2.63 0 1 0 -5.26 0zM1183.87 199.5 a2.63 2.63 0 1 0 5.26 0 a2.63 2.63 0 1 0 -5.26 0zM1162.87 241.5 a2.63 2.63 0 1 0 5.26 0 a2.63 2.63 0 1 0 -5.26 0z" fill="black"></path><path d="M1309.87 220.5 a2.63 2.63 0 1 0 5.26 0 a2.63 2.63 0 1 0 -5.26 0z" fill="black"></path><path d="M1120.87 367.5 a2.63 2.63 0 1 0 5.26 0 a2.63 2.63 0 1 0 -5.26 0zM1183.87 325.5 a2.63 2.63 0 1 0 5.26 0 a2.63 2.63 0 1 0 -5.26 0zM1225.87 325.5 a2.63 2.63 0 1 0 5.26 0 a2.63 2.63 0 1 0 -5.26 0zM1393.87 325.5 a2.63 2.63 0 1 0 5.26 0 a2.63 2.63 0 1 0 -5.26 0zM1414.87 325.5 a2.63 2.63 0 1 0 5.26 0 a2.63 2.63 0 1 0 -5.26 0z" fill="black"></path><path d="M994.87 178.5 a2.63 2.63 0 1 0 5.26 0 a2.63 2.63 0 1 0 -5.26 0zM931.87 157.5 a2.63 2.63 0 1 0 5.26 0 a2.63 2.63 0 1 0 -5.26 0zM1162.87 157.5 a2.63 2.63 0 1 0 5.26 0 a2.63 2.63 0 1 0 -5.26 0zM1372.87 178.5 a2.63 2.63 0 1 0 5.26 0 a2.63 2.63 0 1 0 -5.26 0zM1120.87 199.5 a2.63 2.63 0 1 0 5.26 0 a2.63 2.63 0 1 0 -5.26 0zM1183.87 157.5 a2.63 2.63 0 1 0 5.26 0 a2.63 2.63 0 1 0 -5.26 0z" fill="black"></path><path d="M1183.87 367.5 a2.63 2.63 0 1 0 5.26 0 a2.63 2.63 0 1 0 -5.26 0z" fill="black"></path><path d="M1204.87 136.5 a2.63 2.63 0 1 0 5.26 0 a2.63 2.63 0 1 0 -5.26 0zM1267.87 136.5 a2.63 2.63 0 1 0 5.26 0 a2.63 2.63 0 1 0 -5.26 0zM1225.87 157.5 a2.63 2.63 0 1 0 5.26 0 a2.63 2.63 0 1 0 -5.26 0zM1351.87 136.5 a2.63 2.63 0 1 0 5.26 0 a2.63 2.63 0 1 0 -5.26 0z" fill="black"></path><path d="M1036.87 388.5 a2.63 2.63 0 1 0 5.26 0 a2.63 2.63 0 1 0 -5.26 0zM1288.87 409.5 a2.63 2.63 0 1 0 5.26 0 a2.63 2.63 0 1 0 -5.26 0zM1246.87 409.5 a2.63 2.63 0 1 0 5.26 0 a2.63 2.63 0 1 0 -5.26 0zM1414.87 409.5 a2.63 2.63 0 1 0 5.26 0 a2.63 2.63 0 1 0 -5.26 0zM1246.87 430.5 a2.63 2.63 0 1 0 5.26 0 a2.63 2.63 0 1 0 -5.26 0zM1057.87 430.5 a2.63 2.63 0 1 0 5.26 0 a2.63 2.63 0 1 0 -5.26 0z" fill="black"></path></mask></defs></svg>