<svg xmlns="http://www.w3.org/2000/svg" version="1.1" xmlns:xlink="http://www.w3.org/1999/xlink" xmlns:svgjs="http://svgjs.com/svgjs" width="1440" height="560" preserveAspectRatio="none" viewBox="0 0 1440 560"><g mask="url(&quot;#SvgjsMask1078&quot;)" fill="none"><rect width="1440" height="560" x="0" y="0" fill="rgba(14, 42, 71, 1)"></rect><path d="M1193.95 250.05a5.6 5.6 0 1 0-11.06 1.77 5.6 5.6 0 1 0 11.06-1.77zM1178.15 252.58a5.6 5.6 0 1 0-11.05 1.77 5.6 5.6 0 1 0 11.05-1.77zM1162.36 255.11a5.6 5.6 0 1 0-11.06 1.78 5.6 5.6 0 1 0 11.06-1.78zM1146.56 257.65a5.6 5.6 0 1 0-11.06 1.77 5.6 5.6 0 1 0 11.06-1.77z" stroke="rgba(221, 17, 51, 0.52)" stroke-width="1" stroke-dasharray="4, 4"></path><rect width="286.72" height="286.72" clip-path="url(&quot;#SvgjsClipPath1079&quot;)" x="77.09" y="153.58" fill="url(#SvgjsPattern1080)" transform="rotate(317.95, 220.45, 296.94)"></rect><path d="M698.9 173.86 L721.24 232.88L674.6337318397531 238.80626816024693z" stroke="rgba(221, 17, 51, 0.52)" stroke-width="2.84" stroke-dasharray="4, 4"></path><circle r="46.666666666666664" cx="265.3" cy="488.34" stroke="rgba(221, 17, 51, 0.52)" stroke-width="1.38" stroke-dasharray="3, 2"></circle><rect width="267.8" height="267.8" clip-path="url(&quot;#SvgjsClipPath1081&quot;)" x="478.88" y="-107.99" fill="url(#SvgjsPattern1082)" transform="rotate(241.65, 612.78, 25.91)"></rect><rect width="204" height="204" clip-path="url(&quot;#SvgjsClipPath1083&quot;)" x="807.89" y="200.48" fill="url(#SvgjsPattern1084)" transform="rotate(44.85, 909.89, 302.48)"></rect><path d="M73.28 363.1L61.26 358.68 62.94 345.98 50.92 341.56 52.59 328.86 40.57 324.44 42.25 311.75M80.13 358.96L68.11 354.54 69.78 341.84 57.76 337.42 59.44 324.73 47.42 320.3 49.1 307.61M86.97 354.83L74.95 350.4 76.63 337.71 64.61 333.29 66.29 320.59 54.27 316.17 55.94 303.47" stroke="rgba(221, 17, 51, 0.52)" stroke-width="1" stroke-dasharray="3, 2"></path><path d="M872.03 415.92a5.6 5.6 0 1 0-3.84 10.53 5.6 5.6 0 1 0 3.84-10.53zM866.55 430.96a5.6 5.6 0 1 0-3.84 10.52 5.6 5.6 0 1 0 3.84-10.52zM861.07 445.99a5.6 5.6 0 1 0-3.84 10.52 5.6 5.6 0 1 0 3.84-10.52zM855.59 461.02a5.6 5.6 0 1 0-3.84 10.52 5.6 5.6 0 1 0 3.84-10.52z" stroke="rgba(221, 17, 51, 0.52)" stroke-width="2.73" stroke-dasharray="2, 2"></path><circle r="72.19841312278224" cx="1422.3" cy="315.44" fill="rgba(221, 17, 51, 0.52)"></circle><rect width="98.28" height="98.28" clip-path="url(&quot;#SvgjsClipPath1085&quot;)" x="609.74" y="381.16" fill="url(#SvgjsPattern1086)" transform="rotate(93.94, 658.88, 430.3)"></rect><path d="M164.19 141.03a5.6 5.6 0 1 0-8.27-7.55 5.6 5.6 0 1 0 8.27 7.55zM152.37 130.24a5.6 5.6 0 1 0-8.27-7.55 5.6 5.6 0 1 0 8.27 7.55zM140.56 119.45a5.6 5.6 0 1 0-8.28-7.55 5.6 5.6 0 1 0 8.28 7.55zM128.74 108.67a5.6 5.6 0 1 0-8.27-7.55 5.6 5.6 0 1 0 8.27 7.55zM198.61 150.78a5.6 5.6 0 1 0-8.27-7.55 5.6 5.6 0 1 0 8.27 7.55zM186.79 140a5.6 5.6 0 1 0-8.27-7.55 5.6 5.6 0 1 0 8.27 7.55zM174.98 129.21a5.6 5.6 0 1 0-8.28-7.55 5.6 5.6 0 1 0 8.28 7.55zM163.16 118.42a5.6 5.6 0 1 0-8.27-7.55 5.6 5.6 0 1 0 8.27 7.55zM233.03 160.54a5.6 5.6 0 1 0-8.27-7.55 5.6 5.6 0 1 0 8.27 7.55zM221.22 149.75a5.6 5.6 0 1 0-8.28-7.55 5.6 5.6 0 1 0 8.28 7.55zM209.4 138.97a5.6 5.6 0 1 0-8.27-7.55 5.6 5.6 0 1 0 8.27 7.55zM197.58 128.18a5.6 5.6 0 1 0-8.27-7.55 5.6 5.6 0 1 0 8.27 7.55z" stroke="rgba(221, 17, 51, 0.52)" stroke-width="1.49" stroke-dasharray="2, 2"></path><path d="M477.69 10.81a5.6 5.6 0 1 0-8.08 7.76 5.6 5.6 0 1 0 8.08-7.76zM466.14 21.89a5.6 5.6 0 1 0-8.08 7.75 5.6 5.6 0 1 0 8.08-7.75zM454.6 32.96a5.6 5.6 0 1 0-8.09 7.76 5.6 5.6 0 1 0 8.09-7.76zM443.05 44.04a5.6 5.6 0 1 0-8.08 7.75 5.6 5.6 0 1 0 8.08-7.75z" fill="rgba(221, 17, 51, 0.52)"></path></g><defs><mask id="SvgjsMask1078"><rect width="1440" height="560" fill="#ffffff"></rect></mask><pattern x="0" y="0" width="286.72" height="10.24" patternUnits="userSpaceOnUse" id="SvgjsPattern1080"><rect width="286.72" height="5.12" x="0" y="0" fill="rgba(221, 17, 51, 0.52)"></rect><rect width="286.72" height="5.12" x="0" y="5.12" fill="rgba(0, 0, 0, 0)"></rect></pattern><clipPath id="SvgjsClipPath1079"><circle r="71.68" cx="220.45" cy="296.94"></circle></clipPath><pattern x="0" y="0" width="10.3" height="10.3" patternUnits="userSpaceOnUse" id="SvgjsPattern1082"><path d="M0 10.3L5.15 0L10.3 10.3" stroke="rgba(221, 17, 51, 0.52)" fill="none"></path></pattern><clipPath id="SvgjsClipPath1081"><circle r="66.95" cx="612.78" cy="25.91"></circle></clipPath><pattern x="0" y="0" width="204" height="6" patternUnits="userSpaceOnUse" id="SvgjsPattern1084"><rect width="204" height="3" x="0" y="0" fill="rgba(221, 17, 51, 0.52)"></rect><rect width="204" height="3" x="0" y="3" fill="rgba(0, 0, 0, 0)"></rect></pattern><clipPath id="SvgjsClipPath1083"><circle r="51" cx="909.89" cy="302.48"></circle></clipPath><pattern x="0" y="0" width="98.28" height="7.02" patternUnits="userSpaceOnUse" id="SvgjsPattern1086"><rect width="98.28" height="3.51" x="0" y="0" fill="rgba(221, 17, 51, 0.52)"></rect><rect width="98.28" height="3.51" x="0" y="3.51" fill="rgba(0, 0, 0, 0)"></rect></pattern><clipPath id="SvgjsClipPath1085"><circle r="24.57" cx="658.88" cy="430.3"></circle></clipPath></defs></svg>