<svg xmlns="http://www.w3.org/2000/svg" version="1.1" xmlns:xlink="http://www.w3.org/1999/xlink" xmlns:svgjs="http://svgjs.com/svgjs" width="1440" height="560" preserveAspectRatio="none" viewBox="0 0 1440 560"><g mask="url(&quot;#SvgjsMask1005&quot;)" fill="none"><rect width="1440" height="560" x="0" y="0" fill="rgba(14, 42, 71, 1)"></rect><g transform="translate(0, 0)" stroke-linecap="round"><path d="M499.5 249.185 L499.5 310.815" stroke-width="15.75" stroke="rgba(221, 17, 51, 0.28)"></path><path d="M520.5 278.115 L520.5 281.885" stroke-width="15.75" stroke="rgba(58, 124, 195, 0.28)"></path><path d="M541.5 250.215 L541.5 309.785" stroke-width="15.75" stroke="rgba(58, 124, 195, 0.28)"></path><path d="M562.5 227.095 L562.5 258.595" stroke-width="15.75" stroke="rgba(58, 124, 195, 0.28)"></path><path d="M562.5 282.22 L562.5 332.905" stroke-width="15.75" stroke="rgba(221, 17, 51, 0.28)"></path><path d="M583.5 212.005 L583.5 243.505" stroke-width="15.75" stroke="rgba(58, 124, 195, 0.28)"></path><path d="M583.5 267.13 L583.5 282.88" stroke-width="15.75" stroke="rgba(58, 124, 195, 0.28)"></path><path d="M583.5 306.505 L583.5 348.005" stroke-width="15.75" stroke="rgba(58, 124, 195, 0.28)"></path><path d="M604.5 238.475 L604.5 269.975" stroke-width="15.75" stroke="rgba(58, 124, 195, 0.28)"></path><path d="M604.5 293.6 L604.5 321.515" stroke-width="15.75" stroke="rgba(58, 124, 195, 0.28)"></path><path d="M625.5 261.70500000000004 L625.5 298.295" stroke-width="15.75" stroke="rgba(221, 17, 51, 0.28)"></path><path d="M646.5 243.635 L646.5 316.365" stroke-width="15.75" stroke="rgba(221, 17, 51, 0.28)"></path><path d="M667.5 276.615 L667.5 283.385" stroke-width="15.75" stroke="rgba(221, 17, 51, 0.28)"></path><path d="M688.5 215.625 L688.5 262.875" stroke-width="15.75" stroke="rgba(221, 17, 51, 0.28)"></path><path d="M688.5 286.5 L688.5 302.25" stroke-width="15.75" stroke="rgba(221, 17, 51, 0.28)"></path><path d="M688.5 325.875 L688.5 344.375" stroke-width="15.75" stroke="rgba(58, 124, 195, 0.28)"></path><path d="M709.5 218.745 L709.5 265.995" stroke-width="15.75" stroke="rgba(58, 124, 195, 0.28)"></path><path d="M709.5 289.62 L709.5 341.255" stroke-width="15.75" stroke="rgba(58, 124, 195, 0.28)"></path><path d="M730.5 213.685 L730.5 276.685" stroke-width="15.75" stroke="rgba(221, 17, 51, 0.28)"></path><path d="M730.5 300.31 L730.5 346.315" stroke-width="15.75" stroke="rgba(221, 17, 51, 0.28)"></path><path d="M751.5 254.845 L751.5 305.155" stroke-width="15.75" stroke="rgba(221, 17, 51, 0.28)"></path><path d="M772.5 256.745 L772.5 303.255" stroke-width="15.75" stroke="rgba(221, 17, 51, 0.28)"></path><path d="M793.5 242.825 L793.5 258.575" stroke-width="15.75" stroke="rgba(221, 17, 51, 0.28)"></path><path d="M793.5 282.2 L793.5 317.175" stroke-width="15.75" stroke="rgba(221, 17, 51, 0.28)"></path><path d="M814.5 219.505 L814.5 340.495" stroke-width="15.75" stroke="rgba(58, 124, 195, 0.28)"></path><path d="M835.5 267.735 L835.5 292.265" stroke-width="15.75" stroke="rgba(58, 124, 195, 0.28)"></path><path d="M856.5 230.335 L856.5 246.085" stroke-width="15.75" stroke="rgba(58, 124, 195, 0.28)"></path><path d="M856.5 269.71000000000004 L856.5 285.46000000000004" stroke-width="15.75" stroke="rgba(221, 17, 51, 0.28)"></path><path d="M856.5 309.08500000000004 L856.5 329.665" stroke-width="15.75" stroke="rgba(221, 17, 51, 0.28)"></path><path d="M877.5 224.675 L877.5 335.325" stroke-width="15.75" stroke="rgba(58, 124, 195, 0.28)"></path><path d="M898.5 245.255 L898.5 314.755" stroke-width="15.75" stroke="rgba(221, 17, 51, 0.28)"></path><path d="M919.5 236.175 L919.5 251.925" stroke-width="15.75" stroke="rgba(58, 124, 195, 0.28)"></path><path d="M919.5 275.55 L919.5 323.825" stroke-width="15.75" stroke="rgba(58, 124, 195, 0.28)"></path><path d="M940.5 239.225 L940.5 270.725" stroke-width="15.75" stroke="rgba(58, 124, 195, 0.28)"></path><path d="M940.5 294.35 L940.5 320.775" stroke-width="15.75" stroke="rgba(221, 17, 51, 0.28)"></path></g></g><defs><mask id="SvgjsMask1005"><rect width="1440" height="560" fill="#ffffff"></rect></mask></defs></svg>